<svg version="1" xmlns="http://www.w3.org/2000/svg" width="353.333" height="353.333" viewBox="0 0 265.000000 265.000000"><path d="M93 11.1c-20.9 2.2-38.4 11.4-49.5 26C32.3 51.9 27 69.7 27 92.5c0 12.2 0 12.3 2.9 15.4 3.4 3.7 6.9 4 11.6 1.1 4.3-2.7 7.1-8.8 8-17.8.5-5.5 1.3-8 3-10 2-2.3 2.6-2.5 4.8-1.5 3.2 1.5 7.7 7.1 9.1 11.4 1.6 5 4.2 4.8 11.2-.8 7-5.6 8.8-6.6 24.4-12.7 2.5-1 6-2.4 7.8-3.2 1.8-.8 4.1-1.4 5.2-1.4 1.1 0 3.4-.6 5.2-1.4 3.4-1.4 7.9-2.7 18.3-5.1 15.5-3.6 18.3-4.3 22-5.4 2.2-.6 5.4-1.1 7.2-1.1 1.8 0 5.8-.7 9-1.5 3.1-.8 9.4-1.5 13.8-1.5 6.1 0 8.7-.4 10.5-1.8 1.7-1.2 5.2-1.9 11.2-2.2 4.8-.3 9-.9 9.4-1.3 1.4-1.3-6-7.8-17.1-15.2-13.7-9-35.1-19.8-44.7-22.5-12.8-3.6-46-5-66.8-2.9zM128.8 82.5c-5.1 3.4-6.1 5.7-5.6 13.3.4 5.8.8 6.8 3.6 9.3 2.8 2.6 4 2.9 9.6 2.9 7.5 0 10.3-1.7 13.1-8 1.9-4.1 1.9-4.3-.1-9.8-1.6-4.7-2.6-6.1-5.9-7.9-5.1-2.9-10-2.8-14.7.2zM181 83.3c-3.5 1.8-7 7.4-7 11.4 0 4.3 2.5 9.9 5.4 11.8 2.4 1.8 14.7 2.1 17.7.5 2.4-1.3 5.9-8.1 5.9-11.5 0-3.7-4.8-11.5-7.7-12.6-3.5-1.3-11.4-1.1-14.3.4zM211.2 122.5L210 125h-89.4c-88.6 0-89.5 0-90.1-2-1.9-5.9-9 1.3-10.5 10.6-1.1 6.5-1.4 123.2-.4 128.3l.7 3.1 102.1-.2 102.1-.3.6-7.5c.4-4.1 1.2-8.8 1.8-10.3 1.6-4 1.5-51.1-.1-55.7-.7-2.2-1.4-14.2-1.7-31.5-.6-26.8-.7-28.2-2.9-32.5-1.3-2.5-3.1-5.1-4-5.8-2.6-2-5.8-1.4-7 1.3zm-116.7 69c4.3 1.8 11.2 8.1 14.2 12.9 2.4 3.7 2.6 5.1 2.6 14.1 0 9.9 0 10.2-3.4 15.3-4.6 6.7-9.6 10.6-17.1 13.1-7.7 2.6-8.6 2.6-16.7-.1-5.3-1.7-7.7-3.3-12.1-7.8-6.3-6.4-9-12.7-9-20.9 0-12.3 10.9-25.8 22.4-27.9 5.9-1.1 14.8-.5 19.1 1.3z"/></svg>