<svg xmlns="http://www.w3.org/2000/svg" viewBox="0 0 352.06 166.43"><defs><style>.cls-1{fill:#b40101;}.cls-2{fill:#fff;}</style></defs><title>Asset 1</title><g id="Layer_2" data-name="Layer 2"><g id="Layer_1-2" data-name="Layer 1"><g id="ID0.7711129086092114"><g id="ID0.5865344554185867"><path id="ID0.5426123854704201" class="cls-1" d="M6.82,26.13l37.5-7.2L46.5,31.64,25.81,36,24.63,53.08,30.9,70.47l16.81-2.88-.32-11.48-26,2.14L22.93,48l21.23-6-1.41-8.22.77-14.75,9.83,4.47,1.82,25.08L58.88,70.3,57.35,80.56l-9.22,3.89-15.6.36L14,87.22,7.66,59.84Z"/><path id="ID0.5426123854704201-2" data-name="ID0.5426123854704201" class="cls-1" d="M111.6,8.58l17.88-3.84,1.1,13.66L129.4,35.53l6.27,17.4,16.81-2.88-.32-11.49-26,2.14,1.54-10.26,21.23-6,11,6.58,3.72,21.68L162.12,63,152.9,66.9l-15.6.36-18.54,2.41-6.33-27.38Z"/><path id="ID0.5426123854704201-3" data-name="ID0.5426123854704201" class="cls-1" d="M59.72,51.19,71,40l12,21.8L99.77,59l-.32-11.49-25.2,2-3.94-8.56L96.22,33.4l11,6.58L111,61.65l-1.54,10.27-9.22,3.89-15.6.36-18.54,2.4Z"/><path id="ID0.5426123854704201-4" data-name="ID0.5426123854704201" class="cls-1" d="M105.32,78.2,87.18,80.53l3.51,13.25,6.82,15.76L97.38,128l-16.81,2.88L77.05,120l25.23-6.63-4.87-9.17-22,1.46-8.19,9.87,3.71,21.67,4.87,9.17,10,.6,14.82-4.85,18.28-3.9-3.13-27.93Z"/><path id="ID0.5426123854704201-5" data-name="ID0.5426123854704201" class="cls-1" d="M11,110.17,21.42,94l14.17,34.63,16.81-2.88L51,108.1l-25.41.76L20.82,95.34l25.62-9.17L58.24,97.3,64,131l-.61,15.65-9,5.13-15.81-.88-18.61,2Z"/><path id="ID0.30174649925902486" class="cls-1" d="M119.79,104.69l11.57-2,4.85,21.36,17-1.3,1.43-23,13.58-.71v24.36l3.23,36.24-39.35,6.74L129.59,155l24.58-2.59L152.89,138l-28.06-3.86Z"/><path id="ID0.24947258783504367" class="cls-1" d="M172.06,106.33l4.46-7.92,24.27-3.3,1.52,8.9L185,106.41,183.28,111l7.19-.94,7.34-.11,5.64.75,3.34,5.15.39,7.66-4.38,3-8.41,4.59-14,2.4-3.55-2.83,1.57-3.42,6.5-1.4,12.61-3.3-1-4.12-13.59,1.18L174,116Z"/><path id="ID0.24947258783504367-2" data-name="ID0.24947258783504367" class="cls-1" d="M209.1,103.15l4.47-7.92,24.26-3.3,1.53,8.9L222,103.23l-1.67,4.58,7.2-1,7.34-.11,5.64.75,3.34,5.15.39,7.66-4.38,3-8.41,4.58-14,2.4-3.55-2.83,1.56-3.41,6.51-1.4,12.61-3.31-1-4.12L220,116.46l-8.9-3.63Z"/><path id="ID0.30174649925902486-2" data-name="ID0.30174649925902486" class="cls-1" d="M300.34,83.57l11.58-2,4.85,21.35,17.05-1.29,1.42-23,13.58-.7v24.35l3.23,36.25-39.35,6.74-2.56-11.47,24.57-2.58-1.27-14.4L305.39,113Z"/><path id="ID0.032469240948557854" class="cls-1" d="M250.47,119.2l-1-11.37,5.85-16.25L276.79,87l14.5-.33L293,102.63l-5.14.39-11.24,2-13.52,2.4,1.36-5.65,15.93-2V92.23l-15.6,1.62.32,7.15-1.95,12.35,30.29-4.94L297,120.18l-32.24,5.52Z"/></g><g id="ID0.5865344554185867-2" data-name="ID0.5865344554185867"><path id="ID0.5426123854704201-6" data-name="ID0.5426123854704201" class="cls-2" d="M0,21.38l37.49-7.19L39.67,26.9,19,31.21,17.8,48.34l6.28,17.39,16.81-2.88-.32-11.49-26,2.15L16.1,43.24,37.33,37.3l-1.41-8.22.77-14.75,9.83,4.47,1.83,25.08,3.71,21.67L50.52,75.82,41.3,79.71l-15.59.36L7.17,82.47.83,55.09Z"/><path id="ID0.5426123854704201-7" data-name="ID0.5426123854704201" class="cls-2" d="M104.77,3.83,122.65,0l1.11,13.66-1.19,17.13,6.28,17.39,16.81-2.88-.32-11.49-26,2.15,1.54-10.27,21.22-5.94,11,6.58L156.83,48l-1.54,10.27-9.22,3.89-15.59.36-18.54,2.41L105.6,37.54Z"/><path id="ID0.5426123854704201-8" data-name="ID0.5426123854704201" class="cls-2" d="M52.89,46.45,64.16,35.28l12,21.8L93,54.21l-.32-11.49-25.2,2-3.94-8.56,25.9-7.52,11,6.58,3.71,21.68-1.54,10.26-9.22,3.89-15.59.36L59.23,73.83Z"/><path id="ID0.5426123854704201-9" data-name="ID0.5426123854704201" class="cls-2" d="M98.5,73.45,80.36,75.79,83.86,89l6.82,15.76-.13,18.48-16.81,2.88-3.52-10.93,25.23-6.64-4.86-9.16-22,1.46-8.2,9.86,3.72,21.68L69,141.6l10,.6,14.83-4.85,18.28-3.9-3.14-27.93Z"/><path id="ID0.5426123854704201-10" data-name="ID0.5426123854704201" class="cls-2" d="M4.18,105.43,14.6,89.3l14.17,34.62,16.81-2.87-1.38-17.7-25.41.77L14,90.6l25.62-9.17L51.41,92.55l5.77,33.68-.62,15.64-9,5.13-15.81-.87-18.61,2Z"/><path id="ID0.30174649925902486-3" data-name="ID0.30174649925902486" class="cls-2" d="M113,100l11.57-2,4.85,21.36L146.44,118l1.43-23,13.58-.7V118.7L164.68,155l-39.35,6.74-2.56-11.47,24.57-2.58-1.27-14.4L118,129.39Z"/><path id="ID0.24947258783504367-3" data-name="ID0.24947258783504367" class="cls-2" d="M165.23,101.52l4.47-7.92L194,90.3l1.53,8.9-17.37,2.41-1.67,4.57,7.2-.94,7.33-.11,5.65.75L200,111l.39,7.66-4.39,3-8.4,4.59-14,2.4L170,125.89l1.56-3.42,6.5-1.4,12.62-3.3-1-4.12-13.59,1.18-8.9-3.63Z"/><path id="ID0.24947258783504367-4" data-name="ID0.24947258783504367" class="cls-2" d="M202.28,98.4l4.47-7.92L231,87.19l1.52,8.89-17.36,2.41-1.67,4.57,7.19-.94L228,102l5.65.75,3.33,5.15.39,7.66-4.38,3-8.41,4.59-14,2.4-3.55-2.83,1.56-3.42,6.5-1.4,12.61-3.3-1-4.12-13.59,1.18-8.9-3.63Z"/><path id="ID0.30174649925902486-4" data-name="ID0.30174649925902486" class="cls-2" d="M293.52,78.82l11.57-2,4.85,21.36L327,96.9l1.43-23,13.58-.7V97.58l3.23,36.25-39.35,6.74-2.56-11.47,24.58-2.59-1.28-14.39-28.06-3.85Z"/><path id="ID0.032469240948557854-2" data-name="ID0.032469240948557854" class="cls-2" d="M243.65,114.46l-1-11.38,5.85-16.25L270,82.28,284.46,82l1.69,15.92-5.13.39-11.25,2-13.52,2.41L257.62,97l15.92-2V87.48l-15.6,1.63.33,7.15-1.95,12.35,30.29-4.94,3.57,11.76L257.94,121Z"/></g></g></g></g></svg>